<?xml version="1.0" encoding="utf-8"?>
<!-- Generator: Adobe Illustrator 19.2.1, SVG Export Plug-In . SVG Version: 6.00 Build 0)  -->
<svg version="1.1" id="layer" xmlns="http://www.w3.org/2000/svg" xmlns:xlink="http://www.w3.org/1999/xlink" x="0px" y="0px"
	 viewBox="0 0 652 652" style="enable-background:new 0 0 652 652;" xml:space="preserve">
<style type="text/css">
	.st0{fill:url(#eXpZy9Se7dm14_1_);}
	.st1{fill:url(#eXpZy9Se7dm15_1_);}
	.st2{fill:url(#eXpZy9Se7dm16_1_);}
	.st3{fill:url(#eXpZy9Se7dm17_1_);}
	.st4{fill:url(#eXpZy9Se7dm18_1_);}
	.st5{fill:url(#eXpZy9Se7dm19_1_);}
	.st6{fill:url(#eXpZy9Se7dm20_1_);}
	.st7{fill:url(#eXpZy9Se7dm21_1_);}
	.st8{clip-path:url(#SVGID_2_);fill:url(#eXpZy9Se7dm26_1_);}
	.st9{clip-path:url(#SVGID_4_);fill:url(#eXpZy9Se7dm33_1_);}
	.st10{clip-path:url(#SVGID_6_);fill:url(#eXpZy9Se7dm40_1_);}
	.st11{clip-path:url(#SVGID_8_);fill:url(#eXpZy9Se7dm47_1_);}
	.st12{clip-path:url(#SVGID_10_);fill:url(#eXpZy9Se7dm54_1_);}
</style>
<linearGradient id="eXpZy9Se7dm14_1_" gradientUnits="userSpaceOnUse" x1="642.8983" y1="350.0139" x2="642.8983" y2="272.9346" gradientTransform="matrix(0.9338 0 0 -0.9338 -10.1345 616.6849)">
	<stop  offset="0" style="stop-color:#2E2F78"/>
	<stop  offset="0.1087" style="stop-color:#2E2F78"/>
	<stop  offset="1" style="stop-color:#692C82"/>
</linearGradient>
<path id="eXpZy9Se7dm14" class="st0" d="M628.6,355.9l-0.6-1l-0.6-1l-0.6-1l-0.6-1l-0.6-1l-0.6-1l-0.6-1l-0.6-1l-0.6-1l-0.6-1
	l-0.6-1l-0.6-1l-0.6-1l-0.6-1l-0.6-1l-0.6-1l-0.6-1l-0.6-1l-0.6-1l-0.6-1l-0.6-1l-0.6-1l-0.6-1l-0.6-1l-0.6-1l-0.6-1l-0.6-1l-0.6-1
	l-0.6-1l-0.6-1l-0.6-1l-0.6-1l-0.6-1l-0.6-1l-0.6-1l-0.6-1l-0.6-1l-0.6-1l-0.6-1l-0.6-1l-0.6-1l-0.6-1l-0.6-1l-0.6-1l-0.6-1l-0.6-1
	l-0.6-1l-0.6-1l-0.6-1l-0.6-1l-0.6-1l-0.6-1l-0.6-1l-0.6-1l-0.6-1l-0.6-1l-0.6-1l-0.6-1l-3.3-5.4l-3.3,5.4l-0.6,1l-0.6,1l-0.6,1
	l-0.6,1l-0.6,1l-0.6,1l-0.6,1l-0.6,1l-0.6,1l-0.6,1l-0.6,1l-0.6,1l-0.6,1l-0.6,1l-0.6,1l-0.6,1l-0.6,1l-0.6,1l-0.6,1l-0.6,1l-0.6,1
	l-0.6,1l-0.6,1l-0.6,1l-0.6,1l-0.6,1l-0.6,1l-0.6,1l-0.6,1l-0.6,1l-0.6,1l-0.6,1l-0.6,1l-0.6,1l-0.6,1l-0.6,1l-0.6,1l-0.6,1l-0.6,1
	l-0.6,1l-0.6,1l-0.6,1l-0.6,1l-0.6,1l-0.6,1l-0.6,1l-0.6,1l-0.6,1l-0.6,1l-0.6,1l-0.6,1l-0.6,1l-0.6,1l-0.6,1l-2.9,4.6h12.4l0.5-0.8
	l0.6-1l0.6-1l0.6-1l0.6-1l0.6-1l0.6-1l0.6-1l0.6-1l0.6-1l0.7-1.1h38.1l0.7,0.9l0.7,1.1l0.6,1l0.6,1l0.6,1l0.6,1l0.6,1l0.6,1l0.6,1
	l0.6,1l0.5,0.7h12.3L628.6,355.9z M578.7,335.6l0.9-1.4l0.6-1l0.6-1l0.6-1l0.6-1l0.6-1l0.6-1l0.6-1l0.6-1l0.6-1l0.6-1l0.6-1l0.6-1
	l0.6-1l0.6-1l0.6-1l0.6-1l0.6-1l0.6-1l0.6-1l0.4-0.6l0.4,0.6l0.6,1l0.6,1l0.6,1l0.6,1l0.6,1l0.6,1l0.6,1l0.6,1l0.6,1l0.6,1l0.6,1
	l0.6,1l0.6,1l0.6,1l0.6,1l0.6,1l0.6,1l0.6,1l0.6,1l0.8,1.5L578.7,335.6z"/>
<linearGradient id="eXpZy9Se7dm15_1_" gradientUnits="userSpaceOnUse" x1="554.0251" y1="350.0139" x2="554.0251" y2="272.9346" gradientTransform="matrix(0.9338 0 0 -0.9338 -10.1345 616.6849)">
	<stop  offset="0" style="stop-color:#2E2F78"/>
	<stop  offset="0.1087" style="stop-color:#2E2F78"/>
	<stop  offset="1" style="stop-color:#692C82"/>
</linearGradient>
<path id="eXpZy9Se7dm15" class="st1" d="M538.5,311.6c0-0.3-0.1-0.7-0.1-1c-0.1-0.3-0.1-0.7-0.1-1c-0.1-0.3-0.1-0.7-0.2-1
	c-0.1-0.3-0.2-0.7-0.2-1c-0.1-0.3-0.2-0.7-0.3-1c-0.1-0.3-0.2-0.7-0.4-1c-0.1-0.3-0.2-0.7-0.4-1c-0.2-0.3-0.3-0.7-0.5-1
	c-0.2-0.3-0.4-0.7-0.5-1c-0.2-0.3-0.4-0.7-0.7-1s-0.5-0.7-0.7-1c-3.3-4-8.3-6.5-13.9-6.5h-45v6.5v1v1v1v1v1v1v1v1v1v1v1v1v1v1v1v1v1
	v1v1v1v0.8v1v1v1v1v1v1v0.8v1v1v1v1v1v1v0.8v1v1v1v1v1v1v0.8v1v1v1v1v1v1v1v1v1v1v1v1v1v1v1v1v0.7h10.5l-0.1-0.7v-1v-1.2v-1v-1v-1
	v-1v-1v-1v-0.8v-1v-1v-1v-1v-1v-1V341v-1v-1v-1v-1v-1v-1v-0.8v-1v-1v-1v-0.3h24.4l15.4,25.5h12.9l-15.5-25.5c0,0,2.8-1.1,3.8-1.5
	c0.7-0.3,1.4-0.6,2-1c0.5-0.3,1-0.6,1.6-1c0.4-0.3,0.8-0.6,1.3-1c0.4-0.3,0.7-0.6,1.1-1c0.3-0.3,0.6-0.6,0.9-1
	c0.3-0.3,0.5-0.6,0.8-1c0.2-0.3,0.5-0.6,0.7-1c0.2-0.3,0.4-0.6,0.6-1c0.2-0.3,0.4-0.6,0.5-1c0.2-0.3,0.3-0.6,0.5-1
	c0.1-0.3,0.3-0.6,0.4-1c0.1-0.3,0.2-0.6,0.4-1c0.1-0.3,0.2-0.6,0.3-1c0.1-0.3,0.2-0.6,0.2-1c0.1-0.3,0.1-0.6,0.2-1
	c0.1-0.3,0.1-0.6,0.1-1c0-0.3,0.1-0.6,0.1-1c0-0.2,0-0.5,0-0.8c0-0.1,0-0.1,0-0.2C538.5,312.3,538.5,312,538.5,311.6z M528.1,313.6
	c-0.1,0.3-0.1,0.7-0.2,1s-0.2,0.7-0.3,1c-0.1,0.3-0.2,0.7-0.4,1c-0.2,0.4-0.4,0.7-0.6,1c-0.2,0.4-0.5,0.7-0.8,1
	c-0.4,0.4-0.8,0.7-1.2,1c-0.7,0.4-1.3,0.8-2.1,1.1s-1.3,0.4-2,0.4h-34.6l0.1-0.7v-1v-1v-1v-1v-1v-0.9v-1v-1v-1v-1v-1v-1v-1v-1v-1
	V305h34.5c1.3,0,2.4,0.3,3.5,0.8c0.5,0.2,1,0.6,1.4,1c0.4,0.3,0.7,0.6,1,1c0.2,0.3,0.5,0.6,0.7,1c0.2,0.3,0.4,0.6,0.5,1
	c0.1,0.3,0.2,0.6,0.3,1c0.1,0.3,0.2,0.6,0.2,1c0.1,0.3,0.1,0.6,0.1,1c0,0.1,0,0.1,0,0.2C528.1,313,528.1,313.3,528.1,313.6z"/>
<linearGradient id="eXpZy9Se7dm16_1_" gradientUnits="userSpaceOnUse" x1="211.7153" y1="350.0139" x2="211.7153" y2="272.9346" gradientTransform="matrix(0.9338 0 0 -0.9338 -10.1345 616.6849)">
	<stop  offset="0" style="stop-color:#2E2F78"/>
	<stop  offset="0.1087" style="stop-color:#2E2F78"/>
	<stop  offset="1" style="stop-color:#692C82"/>
</linearGradient>
<path id="eXpZy9Se7dm16" class="st2" d="M219.1,337.2c0-0.3-0.1-0.7-0.1-1c-0.1-0.3-0.1-0.7-0.1-1c-0.1-0.3-0.1-0.7-0.2-1
	c-0.1-0.3-0.2-0.7-0.2-1c-0.1-0.3-0.2-0.7-0.3-1c-0.1-0.3-0.2-0.7-0.4-1c-0.1-0.3-0.3-0.7-0.4-1c-0.2-0.3-0.3-0.7-0.5-1
	c-0.2-0.3-0.4-0.7-0.6-1s-0.4-0.7-0.7-1c-0.2-0.3-0.5-0.7-0.8-1c-0.3-0.3-0.5-0.7-0.9-1c-0.3-0.3-0.7-0.7-1-1
	c-0.4-0.4-0.8-0.7-1.2-1c-0.5-0.4-1-0.7-1.4-1c-0.6-0.4-1.2-0.7-1.9-1c-0.8-0.4-1.9-0.7-2.8-0.8c-0.7-0.1-3-0.3-4.6-0.3h-26.7
	c-0.8,0-1.7-0.3-2.4-0.6c-0.7-0.3-1.3-0.7-1.9-1.1c-0.4-0.3-0.8-0.6-1.1-1c-0.3-0.3-0.5-0.6-0.8-1c-0.2-0.3-0.4-0.6-0.6-1
	c-0.2-0.3-0.3-0.6-0.4-1c-0.1-0.3-0.2-0.6-0.3-1c-0.1-0.3-0.1-0.6-0.1-1c0-0.2-0.1-0.4-0.1-0.7c0-0.1,0-0.2,0-0.3
	c0-0.3,0.1-0.7,0.1-1c0.1-0.3,0.1-0.7,0.2-1c0.1-0.3,0.2-0.7,0.4-1s0.3-0.7,0.5-1c0.2-0.4,0.4-0.7,0.7-1c0.3-0.4,0.6-0.7,1-1
	c0.5-0.4,1-0.7,1.5-1c1-0.5,2.1-0.7,3.2-0.7h38.3l6.6-10.6l-44.9,0.1c-5.6,0-10.6,2.5-13.9,6.5c-0.2,0.3-0.5,0.6-0.7,1
	c-0.2,0.3-0.4,0.6-0.7,1c-0.2,0.3-0.4,0.6-0.5,1c-0.2,0.3-0.4,0.6-0.5,1c-0.1,0.3-0.3,0.6-0.4,1c-0.1,0.3-0.2,0.6-0.4,1
	c-0.1,0.3-0.2,0.6-0.3,1c-0.1,0.3-0.2,0.6-0.2,1c-0.1,0.3-0.1,0.6-0.2,1c-0.1,0.3-0.1,0.6-0.1,1c-0.1,0.3-0.1,0.6-0.1,1
	c0,0.3-0.1,0.6-0.1,1c0,0.1,0,0.2,0,0.3c0,0.2,0,0.4,0,0.7c0,0.3,0.1,0.7,0.1,1s0.1,0.7,0.1,1c0.1,0.3,0.1,0.7,0.2,1
	c0.1,0.3,0.1,0.7,0.2,1c0.1,0.3,0.2,0.7,0.2,1c0.1,0.3,0.2,0.7,0.3,1c0.1,0.3,0.2,0.7,0.4,1c0.1,0.3,0.3,0.7,0.5,1
	c0.2,0.3,0.4,0.7,0.5,1s0.4,0.7,0.6,1s0.5,0.7,0.7,1c0.2,0.3,0.5,0.7,0.8,1c0.3,0.3,0.6,0.7,0.9,1c0.4,0.3,0.7,0.7,1,1
	c0.4,0.4,0.8,0.7,1.2,1c0.5,0.4,0.9,0.7,1.4,1c0.6,0.4,1.2,0.7,1.9,1c1,0.4,1.7,0.7,3,1c1.3,0.3,2.6,0.4,4,0.5l26.8-0.1
	c1,0,1.9,0,2.8,0.3c0.6,0.2,1.2,0.5,1.7,1c0.4,0.3,0.7,0.6,1.1,1c0.3,0.3,0.5,0.6,0.8,1c0.2,0.3,0.4,0.6,0.5,1
	c0.1,0.3,0.3,0.6,0.4,1c0.1,0.3,0.2,0.6,0.2,1c0.1,0.3,0.1,0.6,0.1,1c0,0.2,0,0.3,0,0.5s0,0.3,0,0.4c0,0.3-0.1,0.7-0.1,1
	c-0.1,0.3-0.1,0.7-0.2,1c-0.1,0.3-0.2,0.7-0.4,1c-0.2,0.3-0.3,0.7-0.5,1c-0.2,0.4-0.5,0.7-0.8,1c-0.3,0.4-0.7,0.7-1.1,1
	c-0.5,0.4-1.1,0.7-1.7,1c-0.9,0.4-1.9,0.5-2.9,0.5l-38.6-0.1l-6.2,10.3l44.5,0.2c1.6,0,3.1-0.2,4.6-0.5c1-0.2,1.9-0.5,2.8-1
	c0.7-0.3,1.3-0.6,1.9-1c0.5-0.3,1-0.6,1.5-1c0.4-0.3,0.8-0.6,1.2-1c0.4-0.3,0.7-0.6,1-1c0.3-0.3,0.6-0.6,0.9-1
	c0.2-0.3,0.5-0.6,0.8-1c0.2-0.3,0.5-0.6,0.7-1c0.2-0.3,0.4-0.6,0.6-1c0.2-0.3,0.4-0.6,0.5-1c0.2-0.3,0.3-0.6,0.4-1
	c0.1-0.3,0.2-0.6,0.4-1c0.1-0.3,0.2-0.6,0.3-1c0.1-0.3,0.2-0.6,0.2-1c0.1-0.3,0.1-0.6,0.2-1c0.1-0.3,0.1-0.6,0.1-1
	c0.1-0.3,0.1-0.6,0.1-1c0-0.3,0.1-0.6,0.1-1c0-0.2,0-0.3,0-0.4c0-0.2,0-0.3,0-0.5C219.1,337.8,219.1,337.5,219.1,337.2z"/>
<linearGradient id="eXpZy9Se7dm17_1_" gradientUnits="userSpaceOnUse" x1="464.0265" y1="350.0139" x2="464.0265" y2="272.9346" gradientTransform="matrix(0.9338 0 0 -0.9338 -10.1345 616.6849)">
	<stop  offset="0" style="stop-color:#2E2F78"/>
	<stop  offset="0.1087" style="stop-color:#2E2F78"/>
	<stop  offset="1" style="stop-color:#692C82"/>
</linearGradient>
<polygon id="eXpZy9Se7dm17" class="st3" points="449.2,294.8 397.2,294.8 397.2,305.3 443,305.3 "/>
<linearGradient id="eXpZy9Se7dm18_1_" gradientUnits="userSpaceOnUse" x1="387.9183" y1="350.0139" x2="387.9183" y2="272.9346" gradientTransform="matrix(0.9338 0 0 -0.9338 -10.1345 616.6849)">
	<stop  offset="0" style="stop-color:#2E2F78"/>
	<stop  offset="0.1087" style="stop-color:#2E2F78"/>
	<stop  offset="1" style="stop-color:#692C82"/>
</linearGradient>
<polygon id="eXpZy9Se7dm18" class="st4" points="336.3,345.6 336.3,344.7 336.3,343.8 336.3,342.8 336.3,341.9 336.3,341 336.3,340 
	336.3,339 336.3,338.1 336.3,337.2 336.3,336.2 336.3,335.2 336.3,334.3 336.3,333.4 336.3,332.4 336.3,331.5 336.3,330.6 
	336.3,329.6 336.3,328.6 336.3,327.7 336.3,326.8 336.3,325.8 336.3,324.9 336.3,324 336.3,323 336.3,322 336.3,321.1 336.3,320.2 
	336.3,319.2 336.3,318.3 336.3,317.4 336.3,316.4 336.3,315.4 336.3,314.5 336.3,313.6 336.3,312.6 336.3,311.6 336.3,310.7 
	336.3,309.8 336.3,308.8 336.3,307.9 336.3,307 336.3,306 336.3,305 336.3,304.1 336.3,303.2 336.3,302.2 336.3,301.3 336.3,294.8 
	325.8,294.8 325.8,301.3 325.8,302.2 325.8,303.2 325.8,304.1 325.8,305 325.8,306 325.8,307 325.8,307.9 325.8,308.8 325.8,309.8 
	325.8,310.7 325.8,311.6 325.8,312.6 325.8,313.6 325.8,314.5 325.8,315.4 325.8,316.4 325.8,317.4 325.8,318.3 325.8,319.2 
	325.8,320.2 325.8,321.1 325.8,322 325.8,323 325.8,324 325.8,324.9 325.8,325.8 325.8,326.8 325.8,327.7 325.8,328.6 325.8,329.6 
	325.8,330.6 325.8,331.5 325.8,332.4 325.8,333.4 325.8,334.3 325.8,335.2 325.8,336.2 325.8,337.2 325.8,338.1 325.8,339 
	325.8,340 325.8,341 325.8,341.9 325.8,342.8 325.8,343.8 325.8,344.7 325.8,345.6 325.8,346.6 325.8,347.6 325.8,348.5 
	325.8,349.4 325.8,350.4 325.8,351.3 325.8,352.2 325.8,353.2 325.8,354.2 325.8,355.1 325.8,356 325.8,356.6 371.8,356.6 
	378.4,346.3 336.3,346.3 "/>
<linearGradient id="eXpZy9Se7dm19_1_" gradientUnits="userSpaceOnUse" x1="301.7139" y1="350.0139" x2="301.7139" y2="272.9346" gradientTransform="matrix(0.9338 0 0 -0.9338 -10.1345 616.6849)">
	<stop  offset="0" style="stop-color:#2E2F78"/>
	<stop  offset="0.1087" style="stop-color:#2E2F78"/>
	<stop  offset="1" style="stop-color:#692C82"/>
</linearGradient>
<path id="eXpZy9Se7dm19" class="st5" d="M302.9,311.8c0-0.3-0.1-0.7-0.1-1s-0.1-0.7-0.1-1c-0.1-0.3-0.1-0.7-0.2-1
	c-0.1-0.3-0.2-0.7-0.2-1c-0.1-0.3-0.2-0.7-0.3-1c-0.1-0.3-0.2-0.7-0.4-1c-0.1-0.3-0.3-0.7-0.4-1c-0.2-0.3-0.3-0.7-0.5-1
	s-0.4-0.7-0.5-1c-0.2-0.3-0.4-0.7-0.7-1c-0.2-0.3-0.5-0.7-0.7-1c-3.4-4-8.5-6.6-14.1-6.6h-26.2c-5.6,0-10.7,2.6-14.1,6.6
	c-0.2,0.3-0.5,0.6-0.7,1c-0.2,0.3-0.4,0.6-0.7,1c-0.2,0.3-0.4,0.6-0.5,1c-0.2,0.3-0.4,0.6-0.5,1c-0.1,0.3-0.3,0.6-0.4,1
	c-0.1,0.3-0.2,0.6-0.4,1c-0.1,0.3-0.2,0.6-0.3,1c-0.1,0.3-0.2,0.6-0.2,1c-0.1,0.3-0.1,0.6-0.2,1c-0.1,0.3-0.1,0.6-0.1,1
	c-0.1,0.3-0.1,0.6-0.1,1c0,0.3-0.1,0.6-0.1,1c0,0.1,0,0.3,0,0.4v0.5v1v1v1v0.9c0,1.1,0,2.3,0,3.5h10.4v-5.7l0,0v-0.7v-1v-0.5
	c0-0.1,0-0.3,0-0.4c0-0.3,0.1-0.7,0.1-1c0.1-0.3,0.1-0.7,0.2-1c0.1-0.3,0.2-0.7,0.4-1c0.1-0.3,0.3-0.7,0.5-1c0.2-0.4,0.4-0.7,0.7-1
	c0.3-0.4,0.6-0.7,1-1c0.4-0.4,0.9-0.7,1.4-1c1.1-0.5,2.3-0.9,3.7-0.9h26.2c1.3,0,2.5,0.3,3.6,0.9c0.5,0.2,1,0.6,1.4,1
	c0.4,0.3,0.7,0.6,1,1c0.2,0.3,0.5,0.6,0.7,1c0.2,0.3,0.4,0.6,0.5,1c0.1,0.3,0.2,0.6,0.4,1c0.1,0.3,0.2,0.6,0.2,1
	c0.1,0.3,0.1,0.6,0.1,1c0,0.1,0,0.3,0,0.4v0.5v1v1v1v1v1v0.1l0,0v2.5h10.4c0-1.1,0-2.3,0-3.5v-1v-1v-1v-1v-0.5c0-0.1,0-0.3,0-0.4
	C302.9,312.5,302.9,312.2,302.9,311.8z"/>
<linearGradient id="eXpZy9Se7dm20_1_" gradientUnits="userSpaceOnUse" x1="301.6496" y1="350.0139" x2="301.6496" y2="272.9346" gradientTransform="matrix(0.9338 0 0 -0.9338 -10.1345 616.6849)">
	<stop  offset="0" style="stop-color:#2E2F78"/>
	<stop  offset="0.1087" style="stop-color:#2E2F78"/>
	<stop  offset="1" style="stop-color:#692C82"/>
</linearGradient>
<path id="eXpZy9Se7dm20" class="st6" d="M302.9,331.3h-10.4v2.5v0.6v1v1v1v1v0.1c0,0.3,0,0.6-0.1,0.9c-0.1,0.3-0.1,0.7-0.2,1
	c-0.1,0.3-0.2,0.7-0.3,1c-0.1,0.3-0.2,0.7-0.4,1c-0.2,0.4-0.4,0.7-0.6,1c-0.2,0.4-0.5,0.7-0.8,1c-0.4,0.4-0.7,0.7-1.1,1
	c-0.6,0.4-1.2,0.7-1.9,1c-0.8,0.2-1.6,0.4-2.5,0.4h-26.2c-0.9,0-1.7-0.2-2.5-0.4c-0.7-0.2-1.3-0.5-1.9-1c-0.4-0.3-0.8-0.6-1.1-1
	c-0.3-0.3-0.5-0.6-0.8-1c-0.2-0.3-0.4-0.6-0.6-1c-0.2-0.3-0.3-0.6-0.4-1c-0.1-0.3-0.2-0.6-0.3-1c-0.1-0.3-0.1-0.6-0.2-1
	c-0.1-0.3-0.1-0.6-0.1-0.9v-0.1v-1v-1v-1v-1v-0.6l0,0v-2.5H240c0,0.8,0,1.7,0,2.5v0.6v1v1v1v1v0.1c0,0.3,0,0.6,0,0.9
	c0,0.3,0.1,0.7,0.1,1c0.1,0.3,0.1,0.7,0.1,1c0.1,0.3,0.1,0.7,0.2,1c0.1,0.3,0.1,0.7,0.2,1c0.1,0.3,0.2,0.7,0.3,1
	c0.1,0.3,0.2,0.7,0.4,1c0.1,0.3,0.2,0.7,0.4,1c0.1,0.3,0.3,0.7,0.5,1c0.2,0.3,0.4,0.7,0.5,1c0.2,0.3,0.4,0.7,0.6,1
	c0.2,0.3,0.5,0.7,0.7,1c0.2,0.3,0.5,0.7,0.8,1c0.3,0.3,0.6,0.7,0.9,1c0.4,0.3,0.7,0.7,1.1,1c0.4,0.4,0.8,0.7,1.3,1
	c0.5,0.4,1,0.7,1.5,1c0.7,0.4,1.3,0.7,2,1c1,0.4,2,0.7,3.1,1c1.3,0.2,2.5,0.4,3.8,0.4h26.2c1.3,0,2.6-0.1,3.8-0.4
	c1.1-0.2,2.1-0.5,3.1-1c0.7-0.3,1.3-0.6,2-1c0.5-0.3,1-0.6,1.5-1c0.4-0.3,0.8-0.6,1.3-1c0.4-0.3,0.7-0.6,1.1-1
	c0.3-0.3,0.6-0.6,0.9-1c0.3-0.3,0.5-0.6,0.8-1c0.2-0.3,0.5-0.6,0.7-1c0.2-0.3,0.4-0.6,0.6-1c0.2-0.3,0.4-0.6,0.5-1
	c0.2-0.3,0.3-0.6,0.5-1c0.1-0.3,0.3-0.6,0.4-1c0.1-0.3,0.2-0.6,0.4-1c0.1-0.3,0.2-0.6,0.3-1c0.1-0.3,0.2-0.6,0.2-1
	c0.1-0.3,0.1-0.6,0.2-1c0.1-0.3,0.1-0.6,0.1-1c0.1-0.3,0.1-0.6,0.1-1c0-0.3,0-0.6,0-1c0,0,0,0,0-0.1v-0.9v-1v-1v-1v-0.6l0,0v-2.5
	H302.9z"/>
<linearGradient id="eXpZy9Se7dm21_1_" gradientUnits="userSpaceOnUse" x1="465.6985" y1="350.0139" x2="465.6985" y2="272.9346" gradientTransform="matrix(0.9338 0 0 -0.9338 -10.1345 616.6849)">
	<stop  offset="0" style="stop-color:#2E2F78"/>
	<stop  offset="0.1087" style="stop-color:#2E2F78"/>
	<stop  offset="1" style="stop-color:#692C82"/>
</linearGradient>
<polygon id="eXpZy9Se7dm21" class="st7" points="407.7,345.8 407.7,344.9 407.7,343.9 407.7,343 407.7,342 407.7,341.1 407.7,340.1 
	407.7,339.2 407.7,338.2 407.7,337.3 407.7,336.4 407.7,335.4 407.7,334.5 407.7,333.5 407.7,332.6 407.7,331.6 407.7,331.1 
	407.7,326.2 445.9,326.2 445.8,315.7 397.2,315.7 397.2,320.7 397.2,321.3 397.2,322.2 397.2,323.1 397.2,324.1 397.2,325 
	397.2,326 397.2,326.2 397.2,326.9 397.2,327.9 397.2,328.8 397.2,329.8 397.2,330.7 397.2,331.6 397.2,332.6 397.2,333.5 
	397.2,334.5 397.2,335.4 397.2,336.4 397.2,337.3 397.2,338.2 397.2,339.2 397.2,340.1 397.2,341.1 397.2,342 397.2,343 
	397.2,343.9 397.2,344.9 397.2,345.8 397.2,346.8 397.2,347.7 397.2,348.6 397.2,349.6 397.2,350.5 397.2,351.5 397.2,352.4 
	397.2,353.4 397.2,354.3 397.2,355.2 397.2,356.2 397.2,356.7 445.9,356.7 452.3,346.4 407.7,346.4 "/>
<g>
	<defs>
		<path id="SVGID_1_" d="M97.8,346.2l9.8-9.7H71.2c-6,0-10.9,4.3-10.9,9.5L97.8,346.2z"/>
	</defs>
	<clipPath id="SVGID_2_">
		<use xlink:href="#SVGID_1_"  style="overflow:visible;"/>
	</clipPath>
	
		<linearGradient id="eXpZy9Se7dm26_1_" gradientUnits="userSpaceOnUse" x1="33.888" y1="440.7139" x2="33.888" y2="363.6346" gradientTransform="matrix(0.9338 0 0 -0.9338 52.2407 701.377)">
		<stop  offset="0" style="stop-color:#2E2F78"/>
		<stop  offset="0.1087" style="stop-color:#2E2F78"/>
		<stop  offset="1" style="stop-color:#692C82"/>
	</linearGradient>
	<rect id="eXpZy9Se7dm26" x="60.3" y="336.6" class="st8" width="47.2" height="9.5"/>
</g>
<g>
	<defs>
		<path id="SVGID_3_" d="M81.8,361.8l10.4-10.4h-8.5c-6.9,0-13,4.2-15.1,10.3L81.8,361.8z"/>
	</defs>
	<clipPath id="SVGID_4_">
		<use xlink:href="#SVGID_3_"  style="overflow:visible;"/>
	</clipPath>
	
		<linearGradient id="eXpZy9Se7dm33_1_" gradientUnits="userSpaceOnUse" x1="16.326" y1="465.3139" x2="16.326" y2="388.2346" gradientTransform="matrix(0.9338 0 0 -0.9338 65.1267 724.3475)">
		<stop  offset="0" style="stop-color:#2E2F78"/>
		<stop  offset="0.1087" style="stop-color:#2E2F78"/>
		<stop  offset="1" style="stop-color:#692C82"/>
	</linearGradient>
	<rect id="eXpZy9Se7dm33" x="68.6" y="351.3" class="st9" width="23.6" height="10.3"/>
</g>
<g>
	<defs>
		<polygon id="SVGID_5_" points="112.6,331.3 122.7,321 38.8,321 28.6,331.3 		"/>
	</defs>
	<clipPath id="SVGID_6_">
		<use xlink:href="#SVGID_5_"  style="overflow:visible;"/>
	</clipPath>
	
		<linearGradient id="eXpZy9Se7dm40_1_" gradientUnits="userSpaceOnUse" x1="81.5634" y1="414.7139" x2="81.5634" y2="337.6346" gradientTransform="matrix(0.9338 0 0 -0.9338 -0.9837 677.0992)">
		<stop  offset="0" style="stop-color:#2E2F78"/>
		<stop  offset="0.1087" style="stop-color:#2E2F78"/>
		<stop  offset="1" style="stop-color:#692C82"/>
	</linearGradient>
	<rect id="eXpZy9Se7dm40" x="26.1" y="321" class="st10" width="98.2" height="10.3"/>
</g>
<g>
	<defs>
		<path id="SVGID_7_" d="M54.6,305.3l-10.4,10.3h36.3c6,0,10.9-4.6,10.9-10.3H54.6z"/>
	</defs>
	<clipPath id="SVGID_8_">
		<use xlink:href="#SVGID_7_"  style="overflow:visible;"/>
	</clipPath>
	
		<linearGradient id="eXpZy9Se7dm47_1_" gradientUnits="userSpaceOnUse" x1="43.4893" y1="388.6139" x2="43.4893" y2="311.5346" gradientTransform="matrix(0.9338 0 0 -0.9338 27.1226 652.728)">
		<stop  offset="0" style="stop-color:#2E2F78"/>
		<stop  offset="0.1087" style="stop-color:#2E2F78"/>
		<stop  offset="1" style="stop-color:#692C82"/>
	</linearGradient>
	<rect id="eXpZy9Se7dm47" x="44.1" y="305.3" class="st11" width="47.2" height="10.3"/>
</g>
<g>
	<defs>
		<path id="SVGID_9_" d="M70,289.9l-10.3,10.3h8.5c6.9,0,13-4.2,15.1-10.3H70z"/>
	</defs>
	<clipPath id="SVGID_10_">
		<use xlink:href="#SVGID_9_"  style="overflow:visible;"/>
	</clipPath>
	
		<linearGradient id="eXpZy9Se7dm54_1_" gradientUnits="userSpaceOnUse" x1="21.6085" y1="362.9184" x2="21.6085" y2="285.8391" gradientTransform="matrix(0.9338 0 0 -0.9338 51.307 628.7304)">
		<stop  offset="0" style="stop-color:#2E2F78"/>
		<stop  offset="0.1087" style="stop-color:#2E2F78"/>
		<stop  offset="1" style="stop-color:#692C82"/>
	</linearGradient>
	<rect id="eXpZy9Se7dm54" x="59.7" y="289.9" class="st12" width="23.6" height="10.3"/>
</g>
</svg>
